<?xml version="1.0" encoding="UTF-8"?><svg id="Livello_2" xmlns="http://www.w3.org/2000/svg" viewBox="0 0 122.95 113.84"><defs><style>.cls-1{fill:#fff;}</style></defs><g id="Livello_1-2"><g><path class="cls-1" d="M122.95,41.2c-.01,3.24-3.5,5.12-6.99,3.77-5.65-2.18-5.59-2.17-6.46,3.94-2.19,15.48-4.26,30.98-6.72,46.42-1.99,12.5-9.34,18.46-21.97,18.49-12.99,.02-25.97,.03-38.96,0-13.53-.03-20.5-6.04-22.54-19.59-2.4-15.95-4.75-31.92-6.91-47.9-.44-3.24-1.04-4.34-4.09-2.2-2.53,1.78-5.33,2.59-7.39-.56-2.27-3.46,.07-5.59,2.74-7.33C21.51,24.61,39.41,13.05,57.25,1.4c2.87-1.88,5.45-1.86,8.31,.01,17.84,11.65,35.74,23.21,53.59,34.84,1.81,1.18,3.61,2.47,3.79,4.95Zm-62.03,63.4c6.33,0,12.66,0,18.99,0,9.84-.01,12.8-2.35,14.27-12.09,2.66-17.6,5.06-35.25,7.7-52.86,.42-2.81-.7-4.34-2.86-5.73-11.49-7.39-22.95-14.83-34.38-22.3-1.99-1.3-3.8-1.76-5.97-.33-11.7,7.68-23.42,15.31-35.17,22.92-2.4,1.55-3.19,3.58-2.78,6.37,2.65,18.11,5.17,36.25,7.88,54.35,.95,6.35,4.84,9.54,11.33,9.63,7,.09,14,.02,20.99,.03Z"/><path class="cls-1" d="M40.2,59c.1-11.82,9.79-21.31,21.48-21.04,11.97,.27,21.07,9.66,20.93,21.6-.14,11.73-9.93,21.35-21.49,21.11-11.8-.24-21.02-9.8-20.92-21.67Zm33.22,.05c0-6.62-5.36-12.03-11.96-12.08-6.64-.04-11.98,5.25-12.08,11.97-.1,7.06,5.15,12.58,11.98,12.59,6.94,.01,12.06-5.28,12.06-12.48Z"/></g></g></svg>