<?xml version="1.0" encoding="UTF-8"?><svg id="Livello_2" xmlns="http://www.w3.org/2000/svg" viewBox="0 0 110.99 113.9"><g id="Livello_2-2"><path d="M55.53,.05c6.22,0,12.44,.16,18.66-.03,13.95-.43,23.73,6.32,30.43,17.89,11.37,19.61,7.15,45.01-9.88,60.23-12.72,11.37-27.39,19.94-41.91,28.69-3.6,2.17-7.26,4.26-10.98,6.23-3.04,1.61-4.01,1-4.03-2.43-.05-7.27,0-14.55-.02-21.82,0-4.23-.32-4.43-4.38-4.63-11.35-.59-19.55-6.47-25.69-15.61C-5.04,49.53-1.62,21.55,15.25,7.2,20.81,2.47,27.29,0,34.66,.04c6.96,.03,13.92,0,20.87,0Zm-9.39,100.24c1.65-.6,2.48-.77,3.18-1.17,13.85-8.06,27.62-16.31,39.64-26.98,13.41-11.91,17.27-30.05,10.36-46.42-3.96-9.4-12.32-18.14-26.21-17.54-12.52,.54-25.09,.17-37.64,.1-6.84-.04-12.7,2.33-17.15,7.4-10.86,12.35-12.59,26.5-7.08,41.59,3.43,9.4,9.58,16.42,19.96,18.3,3.58,.65,7.35,.32,11.03,.37,2.62,.03,3.88,1.35,3.9,3.9,.03,3.48,0,6.96,0,10.44,0,3.12,0,6.24,0,10.02Z"/></g></svg>