<?xml version="1.0" encoding="utf-8"?>
<!-- Generator: Adobe Illustrator 27.0.0, SVG Export Plug-In . SVG Version: 6.00 Build 0)  -->
<svg version="1.1" id="Livello_2_00000107585826676327717220000015958612776297173392_"
	 xmlns="http://www.w3.org/2000/svg" xmlns:xlink="http://www.w3.org/1999/xlink" x="0px" y="0px" viewBox="0 0 111.5 113.9"
	 style="enable-background:new 0 0 111.5 113.9;" xml:space="preserve">
<g>
	<path d="M55.9,0c2.3,0,3.8,1.3,4.7,4c2.2,6.2,4.4,12.4,6.6,18.6c2,5.6,4,11.1,6,16.7c0.3,0.9,1,1.4,1.9,1.7c5.5,2,11,3.9,16.5,5.9
		c5.5,2,11,4,16.4,6c2.4,0.9,3.5,2.3,3.5,4.3c-0.1,1.9-1.4,3.3-3.8,4.1c-5.1,1.8-10.1,3.7-15.1,5.5c-5.8,2.1-11.6,4.2-17.5,6.2
		c-1,0.4-1.7,1-2.1,2c-3.3,9.2-6.6,18.3-10,27.5c-0.9,2.6-1.8,5.2-2.8,7.8c-0.5,1.4-1.1,2.7-2.8,3.2c-2.7,0.9-5.1,0-6.1-2.5
		c-1.7-4.5-3.3-9-4.9-13.5c-2.6-7.2-5.3-14.4-7.8-21.6c-0.6-1.8-1.6-2.6-3.4-3.3c-6.4-2.2-12.8-4.7-19.2-7c-4-1.4-7.9-2.8-11.9-4.2
		c-2-0.7-3.7-1.6-4.3-3.7c-0.5-2,0.8-4.2,3-4.9c5.2-1.8,10.4-3.8,15.6-5.7c5.9-2.2,11.8-4.3,17.7-6.4c1.1-0.4,1.7-1.1,2.1-2.1
		c2.1-5.9,4.2-11.8,6.4-17.7c1.6-4.5,3.3-9.1,4.9-13.7c0.5-1.5,1.1-3,1.7-4.5C52.3,0.9,53.7,0,55.9,0z M56,18.6
		c-0.6,0.1-0.6,0.4-0.7,0.7c-0.9,2.5-1.8,5-2.7,7.5c-2.2,6.1-4.4,12.2-6.7,18.3c-0.4,1.1-1.2,1.9-2.4,2.4c-2.6,1.1-5.3,1.9-7.9,2.9
		c-4.3,1.5-8.7,3.2-13,4.7c-1.2,0.4-2.5,0.9-3.7,1.3c-0.3,0.1-0.6,0.3-0.6,0.6c0,0.4,0.3,0.5,0.6,0.6c0.9,0.3,1.7,0.7,2.6,1
		c7.3,2.6,14.6,5.2,21.8,7.8c1.2,0.4,2,1.1,2.4,2.3c0.8,2.3,1.6,4.6,2.4,6.9c1.5,4,3,8.1,4.5,12.1c0.8,2.3,1.6,4.5,2.5,6.8
		c0.1,0.3,0.2,0.8,0.7,0.8c0.4,0,0.4-0.5,0.5-0.8c0.5-1.2,1-2.5,1.4-3.7c2.5-7.2,5.1-14.3,7.6-21.5c0.5-1.3,1.4-2.3,2.8-2.8
		c2.6-1,5.3-1.9,7.9-2.9c5.4-2,10.8-3.9,16.2-5.9c0.4-0.1,0.8-0.3,0.8-0.7c0-0.4-0.4-0.5-0.7-0.6c-2.8-1-5.7-2.1-8.5-3.1
		c-5.3-1.9-10.6-3.7-15.8-5.8c-1-0.4-1.8-1-2.2-2c-1.3-3.4-2.5-6.8-3.8-10.2c-1.3-3.5-2.5-6.9-3.7-10.4C57.6,22.7,56.8,20.6,56,18.6
		z"/>
	<path d="M25,14.7c1.2,0,2.4,0,3.6,0c2.1,0,3.7,1.6,3.6,3.8c0,2.6-0.8,4.3-3.6,4.6c-2.5,0.2-5,0-7.5,0.1c-1.6,0-1.7,0.2-1.7,2
		c0,2.7,0,5.5,0,8.2c0,1.8-0.6,3.1-2,3.9c-1.3,0.8-2.5,0.6-3.6-0.3c-0.9-0.7-1.5-1.7-1.4-3.1c0-3,0-6,0-8.9c0-1.2-0.3-1.8-1.4-1.7
		c-2.5,0-5,0-7.5-0.1c-1.8,0-3-1.2-3.5-3.2c-0.6-2.5,0.8-5,3-5.1c2.6-0.1,5.3-0.1,7.9-0.1c1.2,0,1.4-0.2,1.4-1.6c0-2.9,0-5.9,0-8.8
		c0-1.7,0.6-3.1,1.9-3.8c1.3-0.7,2.6-0.6,3.8,0.5c0.9,0.8,1.3,2,1.3,3.4c0,2.9,0,5.7,0,8.6c0,1.6,0.2,1.8,1.6,1.8
		C22.4,14.7,23.7,14.7,25,14.7C25,14.7,25,14.7,25,14.7z"/>
</g>
</svg>
