<?xml version="1.0" encoding="UTF-8"?><svg id="Livello_2" xmlns="http://www.w3.org/2000/svg" viewBox="0 0 135.76 94.07"><defs><style>.cls-1{fill:#fff;}</style></defs><g id="Livello_2-2"><g><path class="cls-1" d="M108.53,79.23c0-12.38,0-23.95,0-35.52,0-8.12,.05-16.23,.05-24.35,0-7.87-2.32-10.62-10.21-10.8-12.33-.28-24.66-.11-36.99-.15-1.15,0-2.61,.23-3.37-.36-1.25-.98-2.82-2.55-2.8-3.86,.01-1.32,1.62-2.82,2.86-3.84,.66-.54,2.02-.29,3.07-.3,11.59-.02,23.19-.04,34.78,.02,2.31,.01,4.65,.16,6.91,.61,9.36,1.85,14.05,7.7,14.05,17.37,.01,20.13,0,40.25,0,60.38,.26,.25,.53,.51,.79,.76,.6-.88,1.11-1.86,1.82-2.64,2.98-3.27,5.96-6.55,9.07-9.7,1.71-1.73,3.84-1.87,5.68-.26,1.86,1.62,2.04,3.88,.44,5.65-6.21,6.88-12.52,13.68-18.93,20.37-1.99,2.08-4.35,1.86-6.39-.29-6.08-6.43-12.1-12.91-18.14-19.38-1.85-1.98-2.08-4.14-.23-6.2,1.62-1.81,4.34-1.56,6.38,.57,3.56,3.71,7.03,7.51,11.15,11.92Z"/><path class="cls-1" d="M18.93,14.76c-4.08,4.35-7.52,8.04-10.99,11.71-2.11,2.24-4.77,2.55-6.64,.82-1.85-1.71-1.74-3.96,.49-6.37C7.58,14.65,13.4,8.41,19.25,2.2c2.68-2.84,5.02-2.78,7.76,.15,5.69,6.08,11.36,12.17,17.01,18.29,2.45,2.65,2.67,4.79,.82,6.63-1.84,1.82-4.6,1.46-6.88-.96-3.39-3.6-6.76-7.22-10.56-11.3-.11,1.53-.24,2.5-.24,3.47,0,18.77,0,37.54,.02,56.31,0,7.43,1.74,9.5,9.08,10.64,1.76,.27,3.56,.36,5.35,.37,11.49,.04,22.99,.07,34.48,0,2.81-.02,4.47,1.15,4.78,3.88,.27,2.38-1.53,4.15-4.43,4.14-14.11-.04-28.25,.27-42.33-.45-9.89-.5-15.16-7.13-15.17-17.13-.03-19.3,0-38.59-.01-57.89v-3.58Z"/></g></g></svg>