<?xml version="1.0" encoding="UTF-8"?><svg id="Livello_2" xmlns="http://www.w3.org/2000/svg" viewBox="0 0 113.85 110.65"><defs><style>.cls-1{fill:#fff;}</style></defs><g id="Livello_2-2"><path class="cls-1" d="M113.85,37.95c-.04,13.37-5.69,24.65-13.39,35.04-10.52,14.2-23.73,25.58-38.14,35.67-3.52,2.46-6.7,2.78-10.39,.18-17.6-12.45-33.73-26.35-44.54-45.39C0,50.41-2.61,36.68,3.11,22.25c2.92-7.39,7.3-13.78,14.2-18.07C28.11-2.53,41.28-1.05,50.41,7.81q6.47,6.27,13.14,0c11.81-11.07,28.85-10.29,39.62,1.83,6.92,7.78,10.64,17.67,10.67,28.31Zm-8.27-.1c-.02-7.93-2.8-15.67-7.86-21.84-7.97-9.71-20.02-10.37-29-1.56-2.78,2.73-5.45,5.57-8.19,8.35-3.5,3.56-3.53,3.56-6.93,.13-2.96-2.99-5.84-6.08-8.85-9.03-7.03-6.91-16.88-7.51-24.69-1.5-5.02,3.86-8.06,9.15-10.01,15.03-3.95,11.92-.8,22.91,5.24,33.22,9.85,16.81,24.31,29.19,39.96,40.3,.85,.6,2.94,.44,3.86-.21,13.28-9.45,25.57-20,35.19-33.31,6.38-8.82,11.18-18.32,11.28-29.57Z"/></g></svg>