<?xml version="1.0" encoding="UTF-8"?><svg id="Livello_2" xmlns="http://www.w3.org/2000/svg" viewBox="0 0 105.51 113.94"><defs><style>.cls-1{fill:#fff;}</style></defs><g id="Livello_1-2"><path class="cls-1" d="M95.55,50.37c-1.39,11.77,1.24,22.35,8.19,32.13,3.91,5.5,1.1,10.03-5.8,10.31-5.16,.21-10.33,.18-15.5,.04-3.41-.09-5.27,.98-6.64,4.46-5.05,12.89-17.29,19.28-29.67,15.6-7.99-2.38-13.52-7.86-16.45-15.6-1.3-3.43-3.25-4.57-6.71-4.48-5.33,.14-10.69,.25-15.99-.19-6.97-.58-8.93-4.87-4.98-10.7,5.68-8.37,9.06-17.29,8.09-27.61-.33-3.47,.22-7.02-.1-10.49C8.15,23.28,24.88,7.26,41.3,1.74c15.29-5.14,34.19,1.42,45.86,15.65,8.07,9.84,9.17,21.09,8.39,32.98Zm-42.87,33.34c11.31,0,22.63,0,33.94,0,6.83,0,6.86-.04,3.93-5.98-2.84-5.78-4.27-11.85-4.2-18.3,.07-5.82,.03-11.65,0-17.47-.06-16.4-15.56-32.3-32.03-32.88-18.46-.65-35.06,15.33-35.09,33.8,0,3.16-.11,6.33,.02,9.48,.36,9.42-.33,18.61-5,27.12-1.71,3.13-.65,4.35,2.99,4.3,11.81-.16,23.62-.06,35.44-.06Zm.27,9.22s0,.01,0,.02c-3.82,0-7.64-.08-11.46,.03-2.47,.07-3.36,1.41-2.03,3.62,2.93,4.84,7.07,7.92,12.91,8.07,6.07,.15,10.4-2.99,13.62-7.79,1.51-2.25,.8-3.86-2.08-3.92-3.65-.08-7.31-.02-10.96-.02Z"/></g></svg>