<?xml version="1.0" encoding="UTF-8"?><svg id="Livello_2" xmlns="http://www.w3.org/2000/svg" viewBox="0 0 125.17 114.24"><defs><style>.cls-1{fill:#fff;}</style></defs><g id="Livello_1-2"><path class="cls-1" d="M62.21,114.22c-13.27,0-26.54,.05-39.81-.02-7.27-.04-13.77-1.9-18.57-7.95C.98,102.66,0,98.68,0,94.23,.04,69.49-.05,44.74,.05,19.99,.1,8.73,7.82,.35,19.14,.22,47.84-.09,76.53-.06,105.22,.21c10.9,.1,19.33,8.34,19.56,19.73,.47,24.2,.59,48.43-.03,72.62-.38,14.66-8.59,21.59-23.26,21.65-13.09,.06-26.18,.01-39.28,0Zm-.06-9.88c13.45,0,26.9,.08,40.34-.03,8.48-.07,12.6-4.16,12.65-12.61,.11-16.85,.05-33.71,.01-50.56,0-1.54,.64-3.55-1.02-4.45-1.92-1.05-3.31,.83-4.73,1.73-13.18,8.34-26.42,16.58-39.4,25.23-5.56,3.7-10.23,3.63-15.76-.05-13.28-8.84-26.85-17.23-40.28-25.85-3.05-1.96-4.66-2.38-4.59,2.35,.25,17.01,.72,34.02-.05,51.04-.41,9.19,3.84,13.14,13.02,13.19,13.27,.08,26.54,.02,39.8,.02Zm.19-94.39v.02c-13.96,0-27.92-.07-41.88,.03-5.11,.04-8.8,2.26-10.49,7.48-1.72,5.31,1.74,7.44,5.33,9.71,14.36,9.09,28.74,18.15,43.01,27.38,2.81,1.82,4.93,1.83,7.76,0,14.72-9.53,29.56-18.86,44.36-28.28,5.63-3.59,6.09-9,1.15-13.55-2.54-2.34-5.65-2.83-8.97-2.82-13.42,.04-26.84,.02-40.27,.02Z"/></g></svg>