<?xml version="1.0" encoding="UTF-8"?><svg id="Livello_2" xmlns="http://www.w3.org/2000/svg" viewBox="0 0 111.54 113.91"><defs><style>.cls-1{fill:#fff;}</style></defs><g id="Livello_1-2"><path class="cls-1" d="M105.4,56.55c-.16,7.77-3.34,18.18-10.23,27.17-2.57,3.35-2.07,5.34,.77,7.92,4.43,4.03,8.66,8.3,12.84,12.59,2.33,2.39,4.23,5.37,1.19,8.27-3.09,2.95-5.72,.73-8.11-1.69-4.32-4.39-8.81-8.63-13.07-13.07-2.45-2.55-4.33-2.87-7.58-.69-19.38,13-45.99,10.82-63.49-4.86C.17,76.45-5,50.87,5.17,30.13,16.25,7.54,40.77-4.28,64.73,1.42c24.11,5.74,40.74,26.81,40.67,55.13Zm-52.93,39.43c23.72,.05,43.59-19.58,43.57-43.06-.01-23.57-19.87-43.54-43.28-43.52-23.44,.02-43.28,19.97-43.29,43.51,0,23.42,19.56,43.02,42.99,43.07Z"/></g></svg>