<?xml version="1.0" encoding="UTF-8"?><svg id="Livello_2" xmlns="http://www.w3.org/2000/svg" viewBox="0 0 114 114"><g id="Livello_2-2"><path d="M56.52,47.89C72.73,31.6,88.26,15.99,104.17,0c2.85,3.1,5.49,5.99,8.32,9.07-15.58,15.39-31.32,30.95-47.14,46.58,16.52,16.23,32.33,31.75,48.66,47.8-4.02,3.46-6.98,6.02-10.16,8.76-15.1-15.34-30.63-31.11-46.14-46.87-16.29,16.52-31.83,32.28-47.99,48.67-3.35-4.08-5.83-7.1-8.8-10.72,15.18-14.87,31.07-30.44,47.27-46.3C31.66,40.64,15.91,25.06,0,9.32,3.31,6.04,6.11,3.27,9.35,.06c15.66,15.88,31.22,31.65,47.18,47.83Z"/></g></svg>