<?xml version="1.0" encoding="UTF-8"?><svg id="Livello_2" xmlns="http://www.w3.org/2000/svg" viewBox="0 0 113.63 113.68"><g id="Livello_2-2"><path d="M45.44,57.47c-1.14,3.5,1.2,5.19,4.48,6.72,6.95,3.25,13.78,6.75,20.6,10.27,2.12,1.09,3.63,1.06,5.55-.64,8.11-7.17,19.86-7.48,28.56-.98,8.48,6.34,11.36,17.75,6.95,27.53-4.33,9.58-14.79,14.96-25.05,12.87-10.65-2.17-18.4-11.15-18.2-21.98,.07-4.21-1.34-6.25-5.03-7.9-6.91-3.1-13.62-6.64-20.35-10.11-2.05-1.06-3.5-.92-5.31,.66-9.34,8.18-22.87,7.44-31.52-1.57-8.06-8.4-8.17-22.17-.24-30.76,8.34-9.04,21.83-10.1,31.25-2.21,2.18,1.83,3.8,2.04,6.26,.75,6.95-3.66,13.98-7.21,21.1-10.54,2.87-1.34,3.94-2.87,3.81-6.21C67.79,10.22,78.36-.24,91.5,0c12.68,.23,22.86,11.11,22.07,23.97-.55,8.97-5.06,15.69-13.24,19.39-8.5,3.85-16.73,2.68-23.95-3.28-2.13-1.77-3.7-1.9-6.03-.69-6.8,3.55-13.7,6.9-20.56,10.34q-4.38,2.19-4.35,7.74ZM102.25,22.81c.01-6.32-5.06-11.44-11.33-11.42-6.21,.02-11.25,4.97-11.34,11.12-.09,6.45,5.03,11.61,11.47,11.56,6.15-.05,11.18-5.11,11.2-11.26ZM34.04,56.77c-.07-6.32-5.21-11.37-11.48-11.27-6.21,.1-11.18,5.1-11.19,11.27-.01,6.44,5.18,11.54,11.62,11.41,6.15-.13,11.11-5.25,11.05-11.41Zm56.85,22.84c-6.32,.04-11.38,5.15-11.31,11.43,.08,6.33,5.17,11.31,11.5,11.25,6.15-.07,11.17-5.13,11.17-11.29,0-6.32-5.09-11.43-11.36-11.39Z"/></g></svg>